<?xml version="1.0" encoding="utf-8"?>
<!-- Generator: Adobe Illustrator 23.0.1, SVG Export Plug-In . SVG Version: 6.00 Build 0)  -->
<svg version="1.1" id="Layer_1" xmlns="http://www.w3.org/2000/svg" xmlns:xlink="http://www.w3.org/1999/xlink" x="0px" y="0px"
	 viewBox="0 0 512 512" style="enable-background:new 0 0 512 512;" xml:space="preserve">
<style type="text/css">
	.st0{fill-rule:evenodd;clip-rule:evenodd;fill:#1B1B1B;}
</style>
<path class="st0" d="M447.6,406h-41.8v41.7c0,4.6-3.7,8.3-8.4,8.3c-4.6,0-8.4-3.7-8.4-8.3V406h-41.8c-4.6,0-8.4-3.7-8.4-8.3
	c0-4.6,3.7-8.3,8.4-8.3h41.8v-41.7c0-4.6,3.7-8.3,8.4-8.3c4.6,0,8.4,3.7,8.4,8.3v41.7h41.8c4.6,0,8.4,3.7,8.4,8.3
	C456,402.3,452.2,406,447.6,406z M350.5,339.9c4.3,1.7,6.4,6.6,4.7,10.8c-1.3,3.3-4.4,5.2-7.8,5.2c-1,0-2.1-0.2-3.1-0.6l-41.8-16.7
	c-0.1-0.1-0.2-0.2-0.3-0.2c-0.5-0.2-1-0.6-1.4-0.9c-0.5-0.3-0.9-0.6-1.3-1c-0.1-0.1-0.2-0.1-0.3-0.3c-0.2-0.3-0.3-0.6-0.5-1
	c-0.3-0.5-0.6-1-0.8-1.5c-0.2-0.5-0.2-1-0.3-1.5c-0.1-0.5-0.2-1-0.1-1.6c0-0.6,0.2-1.1,0.3-1.7c0.1-0.4,0.1-0.7,0.2-1.1
	c0-0.1,0.2-0.2,0.2-0.3c0.2-0.5,0.6-0.9,0.9-1.4c0.3-0.5,0.6-0.9,1.1-1.3c0.1-0.1,0.1-0.2,0.3-0.3c46.5-38.2,47.4-109.5,47.4-110.2
	v-75c-7.2-40.2-53.8-66.3-91.5-66.7l-0.7,0c-37.8,0-84.7,28.1-91.9,68.5l0,75.4c0,0.7,0.6,69.8,47.1,108c0.4,0.3,0.7,0.8,1,1.2
	c0.3,0.4,0.7,0.7,1,1.2c0,0,0,0.1,0,0.1c0.4,0.7,0.5,1.4,0.7,2.1c0.1,0.3,0.3,0.6,0.3,1c0,0.5-0.1,1-0.1,1.5c0,0.5,0,1.1-0.2,1.6
	c-0.1,0.3-0.3,0.6-0.5,0.9c-0.3,0.7-0.6,1.4-1.1,2c0,0,0,0.1,0,0.1c-0.2,0.2-0.4,0.3-0.6,0.5c-0.6,0.6-1.1,1.1-1.8,1.5L72.7,413.7
	v21c0,2.5,2,4.6,4.5,4.6h245.1c4.6,0,8.4,3.7,8.4,8.3c0,4.6-3.7,8.3-8.4,8.3H77.2c-11.7,0-21.2-9.5-21.2-21.3v-25.9
	c0-3,1.7-5.8,4.3-7.3l130.8-72.2c-43.7-44.1-43.5-112-43.5-115v-75l-0.7-0.2c8.2-49.4,62.2-82.7,107.7-83.1l0.8,0
	c45.7,0,100.2,33.4,108.5,83.1l0.1,1.4l0,76.1c0,2.9-0.5,67.7-43.2,111.5L350.5,339.9z"/>
</svg>
